<?xml version="1.0" standalone="no"?>
<!DOCTYPE svg PUBLIC "-//W3C//DTD SVG 20010904//EN"
 "http://www.w3.org/TR/2001/REC-SVG-20010904/DTD/svg10.dtd">
<svg version="1.0" xmlns="http://www.w3.org/2000/svg"
 width="2000.000000pt" height="2000.000000pt" viewBox="0 0 2000.000000 2000.000000"
 preserveAspectRatio="xMidYMid meet">
<metadata>
Created by potrace 1.11, written by Peter Selinger 2001-2013
</metadata>
<g transform="translate(0.000000,2000.000000) scale(0.100000,-0.100000)"
fill="#000000" stroke="none">
<path d="M9585 17749 c-2419 -131 -4627 -1375 -5997 -3379 -349 -510 -658
-1109 -871 -1690 -442 -1202 -580 -2520 -396 -3795 164 -1142 586 -2238 1232
-3205 545 -814 1274 -1547 2092 -2102 1603 -1088 3537 -1533 5468 -1257 1931
275 3695 1282 4932 2814 727 900 1255 1984 1514 3107 199 861 249 1735 150
2633 -170 1562 -842 3074 -1892 4260 -433 488 -930 926 -1462 1287 -1296 880
-2822 1345 -4385 1336 -129 0 -302 -5 -385 -9z m940 -1940 c2185 -178 4041
-1730 4800 -4013 132 -397 167 -527 172 -649 4 -84 2 -123 -12 -173 -35 -128
-132 -239 -275 -313 -41 -21 -1596 -620 -3455 -1331 -1859 -711 -3383 -1295
-3387 -1299 -4 -4 26 -47 68 -96 428 -502 936 -792 1529 -870 144 -19 437 -22
585 -5 569 63 1094 273 1530 610 125 97 337 311 427 430 39 52 113 162 163
245 51 82 111 174 135 205 88 114 211 213 329 265 168 74 2049 808 2104 821
46 11 96 15 159 11 78 -3 103 -9 157 -36 75 -37 128 -91 165 -170 25 -54 26
-62 25 -231 -2 -446 -124 -1025 -321 -1525 -470 -1191 -1485 -2174 -2858
-2767 -1212 -524 -2448 -700 -3595 -512 -1837 301 -3342 1513 -4137 3329 -609
1389 -696 2868 -248 4201 153 455 407 961 675 1346 209 301 412 539 691 813
285 279 541 485 880 708 918 603 1960 959 2982 1017 171 10 531 4 712 -11z"/>
<path d="M9870 12923 c-288 -29 -531 -86 -788 -187 -572 -224 -991 -541 -1265
-956 -169 -257 -281 -548 -333 -866 -17 -103 -33 -574 -19 -574 8 0 4294 1639
4313 1649 30 17 -269 347 -436 483 -376 303 -836 463 -1316 456 -67 0 -137 -3
-156 -5z"/>
</g>
</svg>
